<svg width="20" height="20" viewBox="0 0 20 20" fill="none" xmlns="http://www.w3.org/2000/svg">
<path d="M1.85679 20C1.58482 19.9995 1.31626 19.9342 1.07003 19.8087C0.749036 19.6489 0.477332 19.3918 0.287533 19.0683C0.0977335 18.7449 -0.00209414 18.3688 3.33078e-05 17.9853V2.01151C0.000572491 1.4782 0.195851 0.966907 0.543023 0.589803C0.890195 0.2127 1.36091 0.000585669 1.85188 0H18.1482C18.6391 0.000585669 19.1098 0.2127 19.457 0.589803C19.8042 0.966907 19.9995 1.4782 20 2.01151V14.8851C19.9995 15.4184 19.8042 15.9297 19.457 16.3068C19.1098 16.684 18.6391 16.8961 18.1482 16.8966H5.92197L3.04355 19.525C2.7121 19.8307 2.29164 19.999 1.85679 20ZM2.22225 2.41381V17.1215L4.5954 14.9546L4.59549 14.9544C4.92934 14.6501 5.3512 14.4831 5.78706 14.4828H17.7778V2.41381H2.22225Z" fill="white"/>
</svg>
