<svg width="30" height="30" viewBox="0 0 30 30" fill="none" xmlns="http://www.w3.org/2000/svg">
<path d="M25.0996 22.2189C24.5481 20.9188 23.7478 19.7378 22.7432 18.7418C21.7417 17.7429 20.5553 16.9465 19.2495 16.3965C19.2378 16.3907 19.2261 16.3878 19.2144 16.382C21.0358 15.0726 22.2199 12.9397 22.2199 10.5333C22.2199 6.54697 18.9747 3.31714 14.9694 3.31714C10.964 3.31714 7.71884 6.54697 7.71884 10.5333C7.71884 12.9397 8.90289 15.0726 10.7243 16.3849C10.7126 16.3907 10.7009 16.3936 10.6892 16.3994C9.37944 16.9494 8.20416 17.7379 7.19551 18.7447C6.19187 19.7415 5.39167 20.9223 4.8391 22.2218C4.29625 23.4941 4.00348 24.8582 3.97664 26.2402C3.97586 26.2713 3.98133 26.3022 3.99273 26.3311C4.00414 26.36 4.02124 26.3863 4.04304 26.4086C4.06483 26.4308 4.09088 26.4485 4.11965 26.4606C4.14841 26.4726 4.17931 26.4788 4.21052 26.4788H5.96468C6.09332 26.4788 6.19564 26.377 6.19857 26.2518C6.25704 24.0055 7.16335 21.9018 8.76549 20.3072C10.4232 18.6574 12.6246 17.7495 14.9694 17.7495C17.3141 17.7495 19.5155 18.6574 21.1732 20.3072C22.7754 21.9018 23.6817 24.0055 23.7401 26.2518C23.7431 26.3799 23.8454 26.4788 23.974 26.4788H25.7282C25.7594 26.4788 25.7903 26.4726 25.8191 26.4606C25.8478 26.4485 25.8739 26.4308 25.8957 26.4086C25.9175 26.3863 25.9346 26.36 25.946 26.3311C25.9574 26.3022 25.9629 26.2713 25.9621 26.2402C25.9328 24.8493 25.6434 23.4963 25.0996 22.2189V22.2189ZM14.9694 15.5381C13.6274 15.5381 12.3644 15.0173 11.4143 14.0716C10.4641 13.1259 9.94077 11.8689 9.94077 10.5333C9.94077 9.19776 10.4641 7.94074 11.4143 6.99507C12.3644 6.0494 13.6274 5.52855 14.9694 5.52855C16.3113 5.52855 17.5743 6.0494 18.5244 6.99507C19.4746 7.94074 19.9979 9.19776 19.9979 10.5333C19.9979 11.8689 19.4746 13.1259 18.5244 14.0716C17.5743 15.0173 16.3113 15.5381 14.9694 15.5381Z" fill="white"/>
</svg>
