<svg width="20" height="20" viewBox="0 0 20 20" fill="none" xmlns="http://www.w3.org/2000/svg">
<path d="M19.8517 18.4055L13.6967 12.2796C14.6518 11.0506 15.1685 9.54806 15.1685 7.96764C15.1685 6.07586 14.4267 4.30202 13.0852 2.96456C11.7438 1.6271 9.95679 0.891144 8.05838 0.891144C6.15997 0.891144 4.37296 1.62946 3.03151 2.96456C1.6877 4.29966 0.948242 6.07586 0.948242 7.96764C0.948242 9.85707 1.69007 11.6356 3.03151 12.9707C4.37296 14.3082 6.1576 15.0441 8.05838 15.0441C9.64631 15.0441 11.1537 14.5299 12.3885 13.5817L18.5435 19.7052C18.5615 19.7232 18.5829 19.7374 18.6065 19.7472C18.6301 19.7569 18.6554 19.7619 18.6809 19.7619C18.7065 19.7619 18.7317 19.7569 18.7553 19.7472C18.7789 19.7374 18.8003 19.7232 18.8184 19.7052L19.8517 18.6791C19.8698 18.6611 19.8841 18.6398 19.8939 18.6163C19.9037 18.5929 19.9087 18.5677 19.9087 18.5423C19.9087 18.5169 19.9037 18.4917 19.8939 18.4682C19.8841 18.4448 19.8698 18.4234 19.8517 18.4055ZM11.8125 11.704C10.8076 12.7018 9.47567 13.2514 8.05838 13.2514C6.64109 13.2514 5.30913 12.7018 4.30423 11.704C3.3017 10.7039 2.74948 9.37823 2.74948 7.96764C2.74948 6.55706 3.3017 5.22904 4.30423 4.23125C5.30913 3.23347 6.64109 2.68386 8.05838 2.68386C9.47567 2.68386 10.81 3.23111 11.8125 4.23125C12.8151 5.2314 13.3673 6.55706 13.3673 7.96764C13.3673 9.37823 12.8151 10.7062 11.8125 11.704Z" fill="white"/>
</svg>
