<svg width="30" height="30" viewBox="0 0 30 30" fill="none" xmlns="http://www.w3.org/2000/svg">
<path d="M24.3244 9.07846H20.3483V8.6129C20.3483 5.65658 17.9392 3.25894 14.9688 3.25894C11.9984 3.25894 9.5894 5.65658 9.5894 8.6129V9.07846H5.61329C5.09581 9.07846 4.67773 9.49455 4.67773 10.0096V25.6059C4.67773 26.1209 5.09581 26.537 5.61329 26.537H24.3244C24.8419 26.537 25.2599 26.1209 25.2599 25.6059V10.0096C25.2599 9.49455 24.8419 9.07846 24.3244 9.07846ZM11.6944 8.6129C11.6944 6.81176 13.1591 5.35397 14.9688 5.35397C16.7785 5.35397 18.2433 6.81176 18.2433 8.6129V9.07846H11.6944V8.6129ZM23.1549 24.442H6.78273V11.1735H9.5894V13.7341C9.5894 13.8621 9.69465 13.9668 9.82328 13.9668H11.4605C11.5891 13.9668 11.6944 13.8621 11.6944 13.7341V11.1735H18.2433V13.7341C18.2433 13.8621 18.3485 13.9668 18.4772 13.9668H20.1144C20.243 13.9668 20.3483 13.8621 20.3483 13.7341V11.1735H23.1549V24.442Z" fill="white"/>
</svg>
