<svg xmlns="http://www.w3.org/2000/svg" viewBox="56.11 200.22 387.78 231.52"><g id="freepik--background-simple--inject-252"><path d="M122.54,209.24C94.37,222,77.6,250.87,71.74,279.6c-4.56,22.33-2.65,46.31,8.71,66.42,18.76,33.22,59.21,50.33,98.27,59.13,45.82,10.31,94.64,12.32,139.69-.61s85.9-42,105.42-82.07c10.4-21.38,14.51-46,8.08-68.66s-24.31-43-48.15-50.44c-29.94-9.32-63.9,3-86.09,24-11,10.41-22.54,24-38.16,22.9-9.72-.67-17.73-7.08-25-13.17C226.14,230,179.42,183.55,122.54,209.24Z" style="fill:#A959DD"/><g style="opacity:0.9"><path d="M122.54,209.24C94.37,222,77.6,250.87,71.74,279.6c-4.56,22.33-2.65,46.31,8.71,66.42,18.76,33.22,59.21,50.33,98.27,59.13,45.82,10.31,94.64,12.32,139.69-.61s85.9-42,105.42-82.07c10.4-21.38,14.51-46,8.08-68.66s-24.31-43-48.15-50.44c-29.94-9.32-63.9,3-86.09,24-11,10.41-22.54,24-38.16,22.9-9.72-.67-17.73-7.08-25-13.17C226.14,230,179.42,183.55,122.54,209.24Z" style="fill:#fff"/></g></g><g id="freepik--Shadow--inject-252"><ellipse id="freepik--path--inject-252" cx="250" cy="415.69" rx="193.89" ry="11.32" style="fill:#f5f5f5"/></g><g id="freepik--Sheets--inject-252"><rect x="113.81" y="374.87" width="48.91" height="12.16" transform="translate(276.52 761.89) rotate(180)" style="fill:#A959DD"/><rect x="113.97" y="374.92" width="48.91" height="12.16" transform="translate(276.84 762) rotate(180)" style="fill:#fff;opacity:0.6000000000000001;isolation:isolate"/><rect x="113.81" y="374.92" width="37.54" height="12.16" transform="translate(265.15 762) rotate(180)" style="fill:#fff;opacity:0.6000000000000001;isolation:isolate"/><polygon points="114.05 385.48 162.72 386.99 162.66 385.76 114.02 385.12 114.05 385.48" style="fill:#A959DD;isolation:isolate"/><polygon points="162.72 379.86 114.12 377.12 114.12 377.53 162.72 380.78 162.72 379.86" style="fill:#A959DD;isolation:isolate"/><polygon points="162.72 376.18 114.12 377.3 114.12 377.69 162.72 377.11 162.72 376.18" style="fill:#A959DD;isolation:isolate"/><polygon points="162.85 382.24 114.25 384.61 114.25 384.25 162.85 381.43 162.85 382.24" style="fill:#A959DD;isolation:isolate"/><polygon points="113.93 375.02 162.52 375.06 162.52 375.46 113.93 375.46 113.93 375.02" style="fill:#A959DD;isolation:isolate"/><rect x="117.31" y="338.65" width="48.91" height="12.16" transform="translate(283.54 689.45) rotate(180)" style="fill:#A959DD"/><rect x="117.47" y="338.7" width="48.91" height="12.16" transform="translate(283.85 689.56) rotate(180)" style="fill:#fff;opacity:0.6000000000000001;isolation:isolate"/><rect x="117.31" y="338.7" width="37.54" height="12.16" transform="translate(272.17 689.56) rotate(180)" style="fill:#fff;opacity:0.6000000000000001;isolation:isolate"/><polygon points="117.55 349.26 166.22 350.77 166.17 349.54 117.53 348.9 117.55 349.26" style="fill:#A959DD;isolation:isolate"/><polygon points="166.22 343.64 117.63 340.9 117.63 341.31 166.22 344.56 166.22 343.64" style="fill:#A959DD;isolation:isolate"/><polygon points="166.22 339.96 117.63 341.08 117.63 341.48 166.22 340.89 166.22 339.96" style="fill:#A959DD;isolation:isolate"/><polygon points="166.36 346.02 117.76 348.39 117.76 348.04 166.36 345.21 166.36 346.02" style="fill:#A959DD;isolation:isolate"/><rect x="116.71" y="362.54" width="48.91" height="12.16" transform="translate(282.32 737.23) rotate(180)" style="fill:#A959DD"/><rect x="116.87" y="362.59" width="48.91" height="12.16" transform="translate(282.64 737.34) rotate(180)" style="fill:#fff;opacity:0.6000000000000001;isolation:isolate"/><rect x="116.81" y="362.59" width="37.54" height="12.16" style="fill:#fff;opacity:0.6000000000000001;isolation:isolate"/><polygon points="165.41 372.79 116.76 373.43 116.71 374.66 165.38 373.15 165.41 372.79" style="fill:#A959DD;isolation:isolate"/><polygon points="117.02 362.69 165.62 362.74 165.62 363.14 117.02 363.14 117.02 362.69" style="fill:#A959DD;isolation:isolate"/><polygon points="116.71 368.45 165.3 365.2 165.3 364.79 116.71 367.53 116.71 368.45" style="fill:#A959DD;isolation:isolate"/><polygon points="165.62 363.85 117.02 364.97 117.02 365.37 165.62 364.78 165.62 363.85" style="fill:#A959DD;isolation:isolate"/><polygon points="165.75 369.92 117.15 372.28 117.15 371.93 165.75 369.11 165.75 369.92" style="fill:#A959DD;isolation:isolate"/><polygon points="163.92 351.07 115.03 351.32 114.96 363.23 163.92 363.23 163.92 351.07" style="fill:#A959DD"/><rect x="115.01" y="351.07" width="48.91" height="12.16" transform="translate(278.94 714.3) rotate(180)" style="fill:#fff;opacity:0.6000000000000001;isolation:isolate"/><rect x="114.96" y="351.07" width="37.54" height="12.16" style="fill:#fff;opacity:0.6000000000000001;isolation:isolate"/><polygon points="153.97 351.32 115.03 351.32 115.03 352.56 153.14 352.56 153.97 351.32" style="fill:#A959DD;isolation:isolate"/><polygon points="163.64 356.3 115.03 356.75 115.03 357.11 163.64 357.11 163.64 356.3" style="fill:#A959DD;isolation:isolate"/><polygon points="115.03 361.93 163.64 359.56 163.64 359.92 115.03 362.74 115.03 361.93" style="fill:#A959DD;isolation:isolate"/><polygon points="115.03 357.35 163.64 358.32 163.64 358.67 115.03 358.16 115.03 357.35" style="fill:#A959DD;isolation:isolate"/><rect x="127.81" y="324.62" width="48.6" height="6.12" style="fill:#A959DD"/><rect x="127.81" y="324.62" width="48.6" height="6.12" style="fill:#fff;opacity:0.6000000000000001;isolation:isolate"/><rect x="127.81" y="324.62" width="38.73" height="6.12" style="fill:#fff;opacity:0.6000000000000001;isolation:isolate"/><polygon points="176.44 328.96 127.84 329.2 127.84 329.38 176.44 329.38 176.44 328.96" style="fill:#A959DD;isolation:isolate"/><polygon points="127.84 326.67 176.44 325.44 176.44 325.62 127.84 327.09 127.84 326.67" style="fill:#A959DD;isolation:isolate"/><polygon points="127.68 326.34 176.28 326.84 176.28 327.02 127.68 326.76 127.68 326.34" style="fill:#A959DD;isolation:isolate"/><rect x="121.01" y="321.92" width="48.6" height="2.95" style="fill:#A959DD"/><rect x="121.01" y="321.95" width="48.6" height="2.93" style="fill:#fff;opacity:0.6000000000000001;isolation:isolate"/><rect x="121.01" y="321.76" width="38.73" height="3.11" style="fill:#fff;opacity:0.6000000000000001;isolation:isolate"/><polygon points="121.04 324.17 169.63 322.93 169.63 323.12 121.04 324.59 121.04 324.17" style="fill:#A959DD;isolation:isolate"/><polygon points="121.04 322.69 169.63 323.19 169.63 323.38 121.04 323.11 121.04 322.69" style="fill:#A959DD;isolation:isolate"/><rect x="125.54" y="318.91" width="48.6" height="2.95" style="fill:#A959DD"/><rect x="125.54" y="318.93" width="48.6" height="2.93" style="fill:#fff;opacity:0.6000000000000001;isolation:isolate"/><rect x="125.54" y="318.75" width="38.73" height="3.11" style="fill:#fff;opacity:0.6000000000000001;isolation:isolate"/><polygon points="125.57 320.24 174.18 320.83 174.17 321.02 125.55 320.66 125.57 320.24" style="fill:#A959DD;isolation:isolate"/><polygon points="125.56 319.68 174.16 320.17 174.16 320.36 125.56 320.09 125.56 319.68" style="fill:#A959DD;isolation:isolate"/><rect x="124.52" y="330.74" width="48.6" height="7.89" style="fill:#A959DD"/><rect x="124.52" y="330.74" width="48.6" height="7.89" style="fill:#fff;opacity:0.6000000000000001;isolation:isolate"/><rect x="124.52" y="330.74" width="37.5" height="7.89" style="fill:#fff;opacity:0.6000000000000001;isolation:isolate"/><polygon points="172.81 333.19 124.22 332.92 124.22 332.7 172.81 332.7 172.81 333.19" style="fill:#A959DD;isolation:isolate"/><polygon points="124.55 334.34 173.15 335.76 173.15 335.55 124.55 333.86 124.55 334.34" style="fill:#A959DD;isolation:isolate"/><polygon points="173.15 330.75 127.31 330.75 128.32 331.72 173.15 331.72 173.15 330.75" style="fill:#A959DD;isolation:isolate"/><polygon points="124.72 337.41 173.31 336.82 173.31 336.62 124.72 336.92 124.72 337.41" style="fill:#A959DD;isolation:isolate"/></g><g id="freepik--Character--inject-252"><g id="freepik--group--inject-252"><path d="M251.86,305.5c.09,3.33,0,6.44-.16,9.65s-.38,6.38-.69,9.58a111.12,111.12,0,0,1-3.52,19.32l-.8,2.46-.2.61-.05.16-.08.23-.25.66a10.37,10.37,0,0,1-1.22,2.15,12,12,0,0,1-2.82,2.79,17.81,17.81,0,0,1-2.78,1.67,37.89,37.89,0,0,1-10.22,3.12,87.8,87.8,0,0,1-19.43,1l-.34-6.38,4.43-.91c1.49-.3,3-.67,4.42-1,2.93-.7,5.82-1.45,8.56-2.35a33.17,33.17,0,0,0,7.26-3.15,4.15,4.15,0,0,0,1.52-1.39c0-.16-.25.51,0-.54l.49-2a128.09,128.09,0,0,0,2.22-17.45c.22-3,.36-6,.5-9s.18-6.09.22-9Z" style="fill:#ffc3bd"/><path d="M212,352.88l-7-5.05-2.11,10.65s6.9,3,8.88-.5Z" style="fill:#ffc3bd"/><polygon points="197.9 348.06 196.57 356.95 202.89 358.48 204.99 347.83 197.9 348.06" style="fill:#ffc3bd"/><path d="M256.93,296.61c1.53,8-4.69,26.79-4.69,26.79L232,320.85c3.11-7.12,4.22-17.4,8.14-24.12C243.77,290.7,255.26,287.93,256.93,296.61Z" style="fill:#A959DD"/><path d="M256.93,296.61c1.53,8-4.69,26.79-4.69,26.79L232,320.85c3.11-7.12,4.22-17.4,8.14-24.12C243.77,290.7,255.26,287.93,256.93,296.61Z" style="opacity:0.5"/><path d="M285.85,290.87a4.85,4.85,0,0,1,4.18,5.44c0,.05,0,.09,0,.13A201.23,201.23,0,0,0,287.94,320c-.21,6.63-.13,12.93.09,18.63.48,13.36,1.68,23.47,1.6,26.95L245,369.31c-7.81-35.52-5.26-61.8-3.07-71.38a8.1,8.1,0,0,1,6.11-6.11c1.71-.38,3.76-.79,5.94-1.11.76-.07,1.54-.21,2.32-.3a168.48,168.48,0,0,1,19.33-.44c1.22,0,2.45.11,3.66.19C281.64,290.36,283.94,290.62,285.85,290.87Z" style="fill:#A959DD"/><path d="M285.85,290.87a4.85,4.85,0,0,1,4.18,5.44c0,.05,0,.09,0,.13A201.23,201.23,0,0,0,287.94,320c-.21,6.63-.13,12.93.09,18.63.48,13.36,1.68,23.47,1.6,26.95L245,369.31c-7.81-35.52-5.26-61.8-3.07-71.38a8.1,8.1,0,0,1,6.11-6.11c1.71-.38,3.76-.79,5.94-1.11.76-.07,1.54-.21,2.32-.3a168.48,168.48,0,0,1,19.33-.44c1.22,0,2.45.11,3.66.19C281.64,290.36,283.94,290.62,285.85,290.87Z" style="opacity:0.5"/><path d="M273.25,268.3c-1.1,6.23-2.1,17.64,2.33,21.7-9.83,8-15.62,18.49-17.74,16.51-1.12-1-2.72-14.08-1.57-16.13,6.9-1.79,6.62-6.92,5.32-11.73Z" style="fill:#ffc3bd"/><path d="M268.51,272.52l-6.9,6.12a19,19,0,0,1,.66,3.42c2.65-.43,6.23-3.41,6.45-6.2A9.4,9.4,0,0,0,268.51,272.52Z" style="opacity:0.2;isolation:isolate"/><path d="M250,252.6c-4.11.54-5.75,7.86-1,13.39S255.52,251.87,250,252.6Z" style="fill:#263238"/><path d="M270.9,257c1.23,8.34,2.38,13.16-.87,18.26-4.91,7.68-15.88,6.08-19.6-1.73-3.33-7-4.81-19.48,2.57-24.46A11.51,11.51,0,0,1,270.9,257Z" style="fill:#ffc3bd"/><path d="M263.09,258.29a4.57,4.57,0,0,0,3.83,3.13,7.77,7.77,0,0,1,.61,5.79l3.08.4a4.86,4.86,0,0,1,4.48-4.93q-1.26,5-3,9.91a25.52,25.52,0,0,0,7.45-10.45,14.72,14.72,0,0,0,1.11-6.13,8,8,0,0,0-2.6-5.54,8.65,8.65,0,0,0-7.77-1.27C265.64,250.48,261,252.89,263.09,258.29Z" style="fill:#263238"/><path d="M276.6,263.56a8,8,0,0,1-2.79,5.44c-2.15,1.81-4.38.17-4.75-2.47-.34-2.37.38-6.17,3-7S276.78,261,276.6,263.56Z" style="fill:#ffc3bd"/><path d="M258.9,262c.14.67-.1,1.3-.54,1.39s-.91-.38-1.06-1.05.1-1.29.54-1.38S258.76,261.32,258.9,262Z" style="fill:#263238"/><path d="M251.34,263.59c.14.67-.1,1.29-.54,1.39s-.91-.38-1.05-1.05.1-1.29.53-1.38S251.18,262.92,251.34,263.59Z" style="fill:#263238"/><path d="M253.8,263.42a24.84,24.84,0,0,1-2,6.41,4,4,0,0,0,3.33-.08Z" style="fill:#ed847e"/><path d="M260.73,259a.38.38,0,0,1-.41-.06,3.2,3.2,0,0,0-2.81-.77A.41.41,0,0,1,257,258l0-.08a.39.39,0,0,1,.26-.49h0a4,4,0,0,1,3.54.94.4.4,0,0,1,.06.56h0A.49.49,0,0,1,260.73,259Z" style="fill:#263238"/><path d="M258.94,272.14h0a6.19,6.19,0,0,0,4.06-4,.21.21,0,0,0-.15-.26.23.23,0,0,0-.27.15,5.83,5.83,0,0,1-3.76,3.69.22.22,0,0,0,.12.42Z" style="fill:#263238"/><path d="M247.51,261.67a.29.29,0,0,1-.24,0,.4.4,0,0,1-.3-.48,4,4,0,0,1,2.36-2.82.4.4,0,0,1,.51.24h0a.4.4,0,0,1-.23.5h0a3.2,3.2,0,0,0-1.85,2.21A.36.36,0,0,1,247.51,261.67Z" style="fill:#263238"/><path d="M194.72,323.49,205.12,357s10.28-3.24,14.78-.43a47.72,47.72,0,0,1,7.74,6.13l-7.18-36.47S210.91,315,194.72,323.49Z" style="fill:#A959DD"/><path d="M220.46,326.24l7.18,36.47s11.16-12.07,21.39-7l3.47,1.79L248.3,321S235,314.26,220.46,326.24Z" style="fill:#A959DD"/><path d="M220.46,326.24l7.18,36.47s11.16-12.07,21.39-7l3.47,1.79L248.3,321S235,314.26,220.46,326.24Z" style="fill:#fff;opacity:0.8"/><path d="M194.72,323.49,205.12,357s10.28-3.24,14.78-.43a47.72,47.72,0,0,1,7.74,6.13l-7.18-36.47S210.91,315,194.72,323.49Z" style="fill:#fff;opacity:0.8"/><path d="M227.62,362.35c-8.68-2.81-17.13-5.76-24.06.4-2.57-9.91-6.39-19.36-9.28-29.17-2.32-7.87-2.33-6.49,1.82-8.78,3.59-2,20.36-3.78,23.91,5.42C221.3,333.58,227,361.57,227.62,362.35Z" style="fill:#263238"/><path d="M255.11,360.82c-5.13-4.49-13.2-4.25-18.53,0-2.28,1.8-5.46,3.06-5.45,2.83v0l-7.41-34.08-.3.22c1.52-5.14,9.4-7.64,14.39-7.8a22.75,22.75,0,0,1,12.4,4S254,350.94,255.11,360.82Z" style="fill:#263238"/><path d="M231.13,363.65s-3,.93-4.17-1.52l-7.31-32.78s1.23,2.15,3.76.39l.3-.22,7.41,34.08A.18.18,0,0,1,231.13,363.65Z" style="fill:#263238"/><path d="M231.13,363.65s-3,.93-4.17-1.52l-7.31-32.78s1.23,2.15,3.76.39l.3-.22,7.41,34.08A.18.18,0,0,1,231.13,363.65Z" style="fill:#fff;opacity:0.1"/><path d="M283.63,295.37c-3.75-.55-5.3.79-7.9,5.91-2.4,4.73-3.72,18.36-3.72,18.36-.46,7.46-1.41,6.62,5.65,7.16,4.52.35,10.24,1.3,10.24,1.3S294.84,297,283.63,295.37Z" style="opacity:0.1"/><path d="M294.07,302.43c.08,3.33,0,6.44-.16,9.66s-.38,6.37-.7,9.57A112.16,112.16,0,0,1,289.7,341l-.81,2.45-.2.62,0,.15-.09.24-.24.65a10.44,10.44,0,0,1-1.22,2.16,12.65,12.65,0,0,1-2.82,2.79,17.91,17.91,0,0,1-2.79,1.67,38.39,38.39,0,0,1-10.22,3.12,87.76,87.76,0,0,1-19.43,1l-.33-6.37,4.43-.91c1.48-.31,3-.68,4.42-1,2.92-.7,5.81-1.45,8.56-2.36a33.35,33.35,0,0,0,7.26-3.14,4.17,4.17,0,0,0,1.52-1.4c0-.15-.25.52,0-.53l.5-2a129.68,129.68,0,0,0,2.22-17.45c.22-3,.36-6,.5-9s.18-6.08.22-9Z" style="fill:#ffc3bd"/><path d="M254.19,349.82l-7-5.05-2.12,10.64s6.91,3,8.89-.5Z" style="fill:#ffc3bd"/><polygon points="240.11 344.99 238.78 353.88 245.09 355.41 247.2 344.77 240.11 344.99" style="fill:#ffc3bd"/><path d="M294.27,296.24c4.76,6.57,3.19,28.73,3.19,28.73l-22.09-2.12s-2.29-12.4,1-22.37C279.92,289.66,288.5,288.26,294.27,296.24Z" style="fill:#A959DD"/><path d="M294.27,296.24c4.76,6.57,3.19,28.73,3.19,28.73l-22.09-2.12s-2.29-12.4,1-22.37C279.92,289.66,288.5,288.26,294.27,296.24Z" style="opacity:0.5"/><path d="M246.47,255.53a28.16,28.16,0,0,1-2.34-3.56c2.91.58,3.21-.92,4.4-5,1.36-4.61,6.58-7.57,9.35-8,19.22-3.11,20.31,7.8,20.5,9.58a3.31,3.31,0,0,1-2,3.1,9.77,9.77,0,0,1-3.84.7c-2.79.12-6.94,1.1-9.63.4C252,249.89,247.8,255.68,246.47,255.53Z" style="fill:#263238"/></g><polygon points="231.97 398.66 245 405.46 251.26 408.73 248.56 415.7 242.37 413.45 227.26 407.95 231.97 398.66" style="fill:#ffc3bd"/><polygon points="231.97 398.66 245 405.46 242.37 413.45 227.26 407.95 231.97 398.66" style="opacity:0.2;isolation:isolate"/><polygon points="209.99 417.16 196.01 421.7 189.3 423.89 186.21 417.08 192.15 414.24 206.65 407.29 209.99 417.16" style="fill:#ffc3bd"/><polygon points="209.99 417.16 196.01 421.7 192.15 414.24 206.65 407.29 209.99 417.16" style="opacity:0.2;isolation:isolate"/><path d="M294.5,378.51a6.44,6.44,0,0,0-1.07-1.87c-4.55-5.42-21.25-5.31-31.4-4.24-4.62.48-10.64,2.81-17.16,6.11a12,12,0,0,0-3.68-3.63c-8.45-4.93-20-6.72-31.31-6.56,16.47-.53,35.07,1,35.07,1l44.41-3.68A35.32,35.32,0,0,1,294.5,378.51Z" style="fill:#A959DD"/><path d="M294.5,378.51a6.44,6.44,0,0,0-1.07-1.87c-4.55-5.42-21.25-5.31-31.4-4.24-4.62.48-10.64,2.81-17.16,6.11a12,12,0,0,0-3.68-3.63c-8.45-4.93-20-6.72-31.31-6.56,16.47-.53,35.07,1,35.07,1l44.41-3.68A35.32,35.32,0,0,1,294.5,378.51Z" style="opacity:0.1"/><path d="M247.32,397c-2.46,3.88-7.06,6-11.62,6.55s-9.17-.25-13.7-1.06l-11.81-2.08L190.94,397c-3.62-.65-7.33-1.32-10.55-3.11-10.37-5.76-12.47-12.25-7.09-17a19.13,19.13,0,0,1,6.08-3.43l.26-.11a87.76,87.76,0,0,1,19.08-4.35l.23,0a102.83,102.83,0,0,1,10.93-.74c11.34-.16,22.86,1.63,31.31,6.56a12,12,0,0,1,3.68,3.63C248.52,383.84,250.17,392.54,247.32,397Z" style="fill:#A959DD"/><path d="M247.32,397c-2.46,3.88-7.06,6-11.62,6.55s-9.17-.25-13.7-1.06l-11.81-2.08L190.94,397c-3.62-.65-7.33-1.32-10.55-3.11-10.37-5.76-12.47-12.25-7.09-17a19.13,19.13,0,0,1,6.08-3.43l.26-.11a87.76,87.76,0,0,1,19.08-4.35l.23,0a102.83,102.83,0,0,1,10.93-.74c11.34-.16,22.86,1.63,31.31,6.56a12,12,0,0,1,3.68,3.63C248.52,383.84,250.17,392.54,247.32,397Z" style="opacity:0.1"/><path d="M176.36,375s-11.14,5.6-8.66,16.67c0,0,1.8,7.06,22.83,11.25s47.7,9,47.7,9l2.69-8.6s-27.66-23.89-48.59-29A27.8,27.8,0,0,0,176.36,375Z" style="fill:#A959DD"/><polygon points="239.4 415.29 232.62 415.16 238.55 398.48 243.91 401.62 239.4 415.29" style="fill:#A959DD"/><g style="opacity:0.6000000000000001;isolation:isolate"><polygon points="239.4 415.29 232.62 415.16 238.55 398.48 243.91 401.62 239.4 415.29" style="fill:#fff"/></g><path d="M247.49,405c.13.57,20.26,6,27.76,3.33C298.72,400,242,381.06,247.49,405Z" style="fill:#A959DD"/><path d="M247.49,405c.13.57,20.26,6,27.76,3.33C298.72,400,242,381.06,247.49,405Z" style="opacity:0.1"/><path d="M293.74,392.06a30.24,30.24,0,0,1-2,4.82s0,0,0,0c-.15.26-.28.53-.43.78a21.33,21.33,0,0,1-1.2,1.91l-.08.13c-.2.28-.39.54-.6.81-6,7.73-21.7,10.77-25.42,5.77a27,27,0,0,1-3.49-7.62,274.08,274.08,0,0,1-39.35,16.61c-7,2.32-14.39,4.52-21.89,6.32l-4.53-9.51,1.79-1.4c2.5-2,7.46-5.78,13.68-10.26,9.94-7.18,23.12-16.08,34.68-21.94,6.52-3.3,12.54-5.63,17.16-6.11,10.15-1.07,26.85-1.18,31.4,4.24a6.44,6.44,0,0,1,1.07,1.87C295.82,381.88,295.37,387.12,293.74,392.06Z" style="fill:#A959DD"/><polygon points="193.89 410.31 198.94 405.78 205.97 422.02 199.9 423.38 193.89 410.31" style="fill:#A959DD"/><g style="opacity:0.6000000000000001;isolation:isolate"><polygon points="193.89 410.31 198.94 405.78 205.97 422.02 199.9 423.38 193.89 410.31" style="fill:#fff"/></g><path d="M239.53,421.2a1.61,1.61,0,0,0,1.27.28,4.47,4.47,0,0,0,.64-.25,3.64,3.64,0,0,0,1.42-1.12l.34-.42a14.92,14.92,0,0,0,1.32-2,.17.17,0,0,0-.07-.22.26.26,0,0,0-.28,0c-.1,0-.34.14-.67.28l-.15.06h0l-1,.44c-1.37.67-3,1.61-3.15,2.34A.64.64,0,0,0,239.53,421.2Zm.2-.54a.69.69,0,0,1,.2-.35,13.67,13.67,0,0,1,3.17-1.92l.27-.12.38-.15c-.16.26-.32.5-.48.73a8.73,8.73,0,0,1-1.18,1.4,2.89,2.89,0,0,1-1.37.84,1,1,0,0,1-.86-.19A.24.24,0,0,1,239.73,420.66Z" style="fill:#A959DD"/><path d="M237.88,417.23c.46.73,2.89,1.07,4.49,1a6.28,6.28,0,0,0,.82-.06h0a.21.21,0,0,0,.1,0s.07-.06.08-.1a.17.17,0,0,0,0-.2l0,0h0a7.21,7.21,0,0,0-3.72-1.88,2.11,2.11,0,0,0-1.38.38C237.69,416.7,237.74,417,237.88,417.23Zm.45-.18s-.12-.18.23-.43l.12-.08a1.56,1.56,0,0,1,.91-.19,6.37,6.37,0,0,1,3.07,1.49C241.14,418,238.67,417.58,238.33,417.05Z" style="fill:#A959DD"/><path d="M244.22,414.56l6.68-6.95a1,1,0,0,1,1.1-.21l8.49,3.66a1.25,1.25,0,0,1,.62,1.89l-.1.12c-8.91,12.3-14,15.71-15.23,16.94-3.6,3.52-6.57.78-5.79-.62,3.52-6.28,3.53-8.56,3.28-11.55A6,6,0,0,1,244.22,414.56Z" style="fill:#263238"/><path d="M181.07,409.12a1.68,1.68,0,0,0-.65,1.14,3.82,3.82,0,0,0,.05.68,3.61,3.61,0,0,0,.64,1.7c.09.15.19.29.3.44a13.64,13.64,0,0,0,1.49,1.86.16.16,0,0,0,.23,0,.28.28,0,0,0,.1-.27c0-.1,0-.36-.07-.72,0,0,0-.11,0-.17v0c0-.3-.07-.66-.13-1-.22-1.51-.61-3.38-1.27-3.71A.66.66,0,0,0,181.07,409.12Zm.46.36a.66.66,0,0,1,.27.3,13.34,13.34,0,0,1,.87,3.61,1.27,1.27,0,0,1,0,.28c0,.14,0,.27,0,.41-.21-.22-.39-.46-.56-.67a9.93,9.93,0,0,1-1-1.55,2.94,2.94,0,0,1-.38-1.56,1.05,1.05,0,0,1,.44-.77A.25.25,0,0,1,181.53,409.48Z" style="fill:#A959DD"/><path d="M185.36,408.76c-.84.22-1.9,2.43-2.35,4a6.56,6.56,0,0,0-.18.79s0,0,0,.05a.17.17,0,0,0,0,.1.26.26,0,0,0,.07.11.18.18,0,0,0,.21,0l0,0h0a7.21,7.21,0,0,0,2.92-3,2.11,2.11,0,0,0,.06-1.44C185.92,408.74,185.6,408.69,185.36,408.76Zm0,.48c.05,0,.21-.05.34.35l0,.14a1.53,1.53,0,0,1-.09.92,6.37,6.37,0,0,1-2.36,2.48C183.69,411.64,184.78,409.4,185.39,409.24Z" style="fill:#A959DD"/><path d="M186.38,416.26l3.61,7a1,1,0,0,1-.14,1.11l-7.2,5.4a1.24,1.24,0,0,1-2,0l-.09-.13c-9-12.22-11.12-17.79-11.91-19.37-2.25-4.5,1.25-6.5,2.35-5.33,4.92,5.25,8.7,8.23,11.62,8.9C186.66,415.27,186.1,415.76,186.38,416.26Z" style="fill:#263238"/><path d="M249.13,267.85h-.06a4.17,4.17,0,1,1,4.23-4.11h0A4.17,4.17,0,0,1,249.13,267.85Zm0-7.4a3.23,3.23,0,0,0-3.22,3.18,3.23,3.23,0,0,0,3.17,3.28h0a3.23,3.23,0,0,0,.06-6.46Z" style="fill:#263238"/><path d="M258.75,265.56h-.07a4.17,4.17,0,1,1,4.23-4.1h0A4.16,4.16,0,0,1,258.75,265.56Zm0-7.39a3.23,3.23,0,0,0-3.22,3.17,3.23,3.23,0,1,0,3.28-3.17Z" style="fill:#263238"/><path d="M252.94,262.19,252,262c0-.15.32-1.53,1.33-1.83a2.06,2.06,0,0,1,2,.83l-.66.66c-.46-.46-.85-.67-1.1-.59S253,261.89,252.94,262.19Z" style="fill:#263238"/><polygon points="262.49 261.2 262.28 260.28 271.77 258.03 273.6 258.43 273.4 259.35 271.77 258.99 262.49 261.2" style="fill:#263238"/></g><g id="freepik--Books--inject-252"><path d="M307.94,391.08v6.42a.62.62,0,0,0,0,1.23l7.35,0v-8.91h-7.35A.62.62,0,0,0,307.94,391.08Z" style="fill:#A959DD"/><path d="M307.94,391.08v6.42a.62.62,0,0,0,0,1.23l7.35,0v-8.91h-7.35A.62.62,0,0,0,307.94,391.08Z" style="fill:#fff;opacity:0.30000000000000004"/><rect x="307.94" y="391.09" width="5.7" height="6.41" style="fill:#A959DD"/><rect x="307.94" y="391.09" width="5.7" height="6.41" style="fill:#fff;opacity:0.6000000000000001"/><path d="M312.45,390.46h31.49c1.36,0,2.46,1.71,2.46,3.83s-1.1,3.82-2.46,3.82H312.45Z" style="fill:#A959DD"/><path d="M312.45,390.46h31.49c1.36,0,2.46,1.71,2.46,3.83s-1.1,3.82-2.46,3.82H312.45Z" style="fill:#fff;opacity:0.9"/><path d="M312.45,398.73c6.47,0,24.67.11,31.15,0,4.43-.08,4.67-8.58.32-8.88-3-.21-6.15,0-9.19,0H312.45a.62.62,0,0,0,0,1.23h30.12c1.42,0,2.44,0,3,1.69.47,1.45.32,4.41-1.62,4.73a5,5,0,0,1-.67,0H312.45a.62.62,0,0,0,0,1.23Z" style="fill:#A959DD"/><g style="opacity:0.2"><path d="M312.45,398.73c6.47,0,24.67.11,31.15,0,4.43-.08,4.67-8.58.32-8.88-3-.21-6.15,0-9.19,0H312.45a.62.62,0,0,0,0,1.23h30.12c1.42,0,2.44,0,3,1.69.47,1.45.32,4.41-1.62,4.73a5,5,0,0,1-.67,0H312.45a.62.62,0,0,0,0,1.23Z" style="fill:#fff"/></g><path d="M309,399.74v5.95a.57.57,0,0,0,0,1.13l6.8,0V398.6H309A.57.57,0,0,0,309,399.74Z" style="fill:#A959DD"/><path d="M309,399.74v5.95a.57.57,0,0,0,0,1.13l6.8,0V398.6H309A.57.57,0,0,0,309,399.74Z" style="fill:#fff;opacity:0.30000000000000004"/><rect x="309.04" y="399.75" width="5.28" height="5.94" style="fill:#A959DD"/><rect x="309.04" y="399.75" width="5.28" height="5.94" style="fill:#fff;opacity:0.6000000000000001"/><path d="M313.21,399.17h29.16c1.26,0,2.28,1.59,2.28,3.54s-1,3.54-2.28,3.54H313.21Z" style="fill:#A959DD"/><path d="M313.21,399.17h29.16c1.26,0,2.28,1.59,2.28,3.54s-1,3.54-2.28,3.54H313.21Z" style="fill:#fff;opacity:0.9"/><path d="M313.21,406.82c6,0,22.85.11,28.85,0,4.1-.07,4.32-7.94.3-8.22-2.81-.19-5.7,0-8.51,0H313.21a.57.57,0,0,0,0,1.14h27.9c1.31,0,2.25,0,2.76,1.57.44,1.34.3,4.08-1.5,4.38a4.14,4.14,0,0,1-.61,0H313.21a.57.57,0,0,0,0,1.13Z" style="fill:#A959DD"/><path d="M305.65,408.07v7.08a.68.68,0,0,0,0,1.35c2.69,0,5.39,0,8.09,0v-9.82h-8.09A.68.68,0,0,0,305.65,408.07Z" style="fill:#A959DD"/><path d="M305.65,408.07v7.08a.68.68,0,0,0,0,1.35c2.69,0,5.39,0,8.09,0v-9.82h-8.09A.68.68,0,0,0,305.65,408.07Z" style="fill:#fff;opacity:0.30000000000000004"/><rect x="305.65" y="408.08" width="6.29" height="7.07" style="fill:#A959DD"/><rect x="305.65" y="408.08" width="6.29" height="7.07" style="fill:#fff;opacity:0.6000000000000001"/><path d="M310.61,407.4h34.71c1.5,0,2.71,1.88,2.71,4.21s-1.21,4.22-2.71,4.22H310.61Z" style="fill:#A959DD"/><path d="M310.61,407.4h34.71c1.5,0,2.71,1.88,2.71,4.21s-1.21,4.22-2.71,4.22H310.61Z" style="fill:#fff;opacity:0.9"/><path d="M310.61,416.5c7.14,0,27.2.13,34.33,0,4.89-.08,5.15-9.45.36-9.78-3.34-.23-6.78,0-10.13,0H310.61a.68.68,0,0,0,0,1.35h33.2c1.57,0,2.69,0,3.29,1.87.53,1.6.36,4.86-1.78,5.21a4.45,4.45,0,0,1-.73,0h-34a.68.68,0,0,0,0,1.35Z" style="fill:#A959DD"/><g style="opacity:0.2"><path d="M310.61,416.5c7.14,0,27.2.13,34.33,0,4.89-.08,5.15-9.45.36-9.78-3.34-.23-6.78,0-10.13,0H310.61a.68.68,0,0,0,0,1.35h33.2c1.57,0,2.69,0,3.29,1.87.53,1.6.36,4.86-1.78,5.21a4.45,4.45,0,0,1-.73,0h-34a.68.68,0,0,0,0,1.35Z"/></g><polygon points="92.3 414.91 101.8 400.01 118.32 394.67 141.53 398.3 142.92 412.17 131.41 414.35 121.52 412.85 116.02 410.71 109.68 416.14 100.87 417.67 95.01 416.93 92.3 414.91" style="fill:#A959DD"/><polygon points="92.3 414.91 101.8 400.01 118.32 394.67 141.53 398.3 142.92 412.17 131.41 414.35 121.52 412.85 116.02 410.71 109.68 416.14 100.87 417.67 95.01 416.93 92.3 414.91" style="opacity:0.1"/><polygon points="121.53 395.17 119.84 412.2 116.02 410.71 111.64 414.46 115.37 395.63 118.32 394.67 121.53 395.17" style="opacity:0.2"/><path d="M91.7,417.29s16.43,6.83,24.83-5c0,0,17.21,8.44,26.39-.1l-1.59-2.6s-4.46,7.3-25.49-.52c0,0-8.94,11.66-23.54,5.86Z" style="fill:#A959DD"/><path d="M91.7,417.29s16.43,6.83,24.83-5c0,0,17.21,8.44,26.39-.1l-1.59-2.6s-4.46,7.3-25.49-.52c0,0-8.94,11.66-23.54,5.86Z" style="fill:#fff;opacity:0.8"/><polygon points="104.05 402.55 115.96 392.99 132.77 392.06 154.27 399.25 152.95 410.1 141.54 409.56 132.37 406.54 127.52 403.86 120.43 406.79 111.71 406.29 106.26 404.6 104.05 402.55" style="fill:#A959DD"/><polygon points="104.05 402.55 115.96 392.99 132.77 392.06 154.27 399.25 152.95 410.1 141.54 409.56 132.37 406.54 127.52 403.86 120.43 406.79 111.71 406.29 106.26 404.6 104.05 402.55" style="opacity:0.1"/><polygon points="135.75 393.05 130.89 405.72 127.52 403.86 122.62 405.88 129.77 392.22 132.77 392.06 135.75 393.05" style="opacity:0.2"/><path d="M103,404.24s14.41,8.35,24.69.91c0,0,14.85,9.72,25.24,4.94l-1-2.28s-5.65,4.72-24.27-5.25a23.37,23.37,0,0,1-23.61,0Z" style="fill:#A959DD"/><path d="M103,404.24s14.41,8.35,24.69.91c0,0,14.85,9.72,25.24,4.94l-1-2.28s-5.65,4.72-24.27-5.25a23.37,23.37,0,0,1-23.61,0Z" style="fill:#fff;opacity:0.8"/><path d="M243.51,373.6l52.68,2.24s-.95-6.45-1.64-6.62-9.34-7.63-19.43-4.08c-2.2.76-3.8,1.35-4.94,1.77-1.1-.52-2.64-1.23-4.77-2.19-9.76-4.39-19,2.31-19.72,2.42S243.51,373.6,243.51,373.6Z" style="fill:#A959DD"/><path d="M243.51,373.6l52.68,2.24,0-.16c-.16-1-1-6.3-1.62-6.46l-.12-.06c-1.23-.67-9.6-7.44-19.3-4-2.21.77-3.81,1.35-4.95,1.79-1.1-.53-2.64-1.24-4.77-2.2-9.76-4.39-19,2.31-19.71,2.42S243.51,373.6,243.51,373.6Z" style="fill:#fff;opacity:0.6000000000000001"/><path d="M237.49,373.35l53.32,2.26s-1-6.53-1.66-6.7-9.49-6.74-19.7-3.15c-2.23.78-5.1,4.05-5.1,4.05s-2.58-3.51-4.74-4.47c-9.87-4.44-19.19,1.35-19.91,1.47S237.49,373.35,237.49,373.35Z" style="fill:#A959DD"/><path d="M237.49,373.35l53.32,2.26s-1-6.53-1.66-6.7-9.49-6.74-19.7-3.15c-2.23.78-5.1,4.05-5.1,4.05s-2.58-3.51-4.74-4.47c-9.87-4.44-19.19,1.35-19.91,1.47S237.49,373.35,237.49,373.35Z" style="fill:#fff;opacity:0.8"/><polygon points="264.04 371.58 265.6 374.72 261.59 374.55 264.04 371.58" style="fill:#A959DD"/><g style="opacity:0.30000000000000004"><polygon points="264.04 371.58 265.6 374.72 261.59 374.55 264.04 371.58"/></g><path d="M289.22,368.94a12.59,12.59,0,0,1,.76,2.32c.41,2,.83,4.35.83,4.35l5.38.23,0-.16c-.16-1-1-6.3-1.62-6.46l-.12-.06Z" style="opacity:0.1"/><path d="M235.37,375.24,261.49,377l.06,0a2.93,2.93,0,0,1,3.89.16l.05.05,26.94.79,6.8.21-.41-2.35-33.21-1.41a2.93,2.93,0,0,0-4-.17l-25.48-1.12Z" style="fill:#263238"/><g style="opacity:0.30000000000000004"><polygon points="292.01 375.48 292.44 377.91 299.24 378.12 298.82 375.77 292.01 375.48"/></g><path d="M261.78,370.05s-3.9-4.89-8.91-4.22C252.87,365.83,256.37,365.54,261.78,370.05Z" style="fill:#A959DD"/><path d="M261.78,370.05s-3.9-4.89-8.91-4.22C252.87,365.83,256.37,365.54,261.78,370.05Z" style="fill:#fff;opacity:0.4"/><path d="M271.46,372.63s5.61-2.75,9.86,0C281.32,372.62,278.27,370.86,271.46,372.63Z" style="fill:#A959DD"/><path d="M271.46,372.63s5.61-2.75,9.86,0C281.32,372.62,278.27,370.86,271.46,372.63Z" style="fill:#fff;opacity:0.4"/><path d="M266.34,370.8s4.57-4.26,9.43-2.87C275.77,367.93,272.35,367.13,266.34,370.8Z" style="fill:#A959DD"/><path d="M266.34,370.8s4.57-4.26,9.43-2.87C275.77,367.93,272.35,367.13,266.34,370.8Z" style="fill:#fff;opacity:0.4"/><path d="M255.25,369.7s-5.34-3.25-9.82-.9C245.43,368.8,248.62,367.32,255.25,369.7Z" style="fill:#A959DD"/><path d="M255.25,369.7s-5.34-3.25-9.82-.9C245.43,368.8,248.62,367.32,255.25,369.7Z" style="fill:#fff;opacity:0.4"/></g></svg>