<svg width="178" height="171" viewBox="0 0 178 171" fill="none" xmlns="http://www.w3.org/2000/svg">
<path d="M88.9998 86.0001L87.9099 84.9695L88.9998 86.0001ZM157 149L161.468 132.266L144.742 136.763L157 149ZM20.9998 23.0001C19.5363 23.3291 19.5364 23.3298 19.5367 23.331C19.5369 23.3319 19.5373 23.3335 19.5377 23.3354C19.5385 23.3392 19.5398 23.3446 19.5414 23.3516C19.5446 23.3657 19.5493 23.3863 19.5554 23.4134C19.5678 23.4674 19.5861 23.5472 19.6104 23.6515C19.659 23.8602 19.7314 24.1674 19.8274 24.5651C20.0195 25.3605 20.3062 26.5179 20.6861 27.9729C21.4459 30.8824 22.5795 34.9841 24.0762 39.7611C27.0658 49.3027 31.5208 61.5914 37.3662 72.4606C43.1739 83.2599 50.5144 92.9669 59.4126 96.9327C63.9217 98.9423 68.8132 99.4686 74.012 97.9391C79.1772 96.4195 84.5353 92.9043 90.0896 87.0308L87.9099 84.9695C82.5893 90.5959 77.6661 93.737 73.1653 95.0611C68.698 96.3754 64.5388 95.9329 60.6338 94.1925C52.7039 90.6583 45.7631 81.7404 40.0083 71.0397C34.2912 60.4088 29.9025 48.3225 26.939 38.8641C25.4591 34.1411 24.3387 30.0866 23.5888 27.2149C23.2139 25.7792 22.9317 24.6398 22.7436 23.8609C22.6496 23.4715 22.5791 23.1723 22.5323 22.9713C22.5089 22.8708 22.4914 22.7949 22.4799 22.7445C22.4742 22.7193 22.4699 22.7006 22.4671 22.6883C22.4657 22.6822 22.4647 22.6777 22.4641 22.6748C22.4637 22.6734 22.4635 22.6725 22.4634 22.6717C22.4633 22.6713 22.4632 22.6712 20.9998 23.0001ZM90.0896 87.0308C98.3859 78.2577 105.703 75.5235 112.052 76.3025C118.477 77.0909 124.392 81.5273 129.722 88.176C140.381 101.472 147.958 122.679 152.059 136.396L154.933 135.537C150.828 121.805 143.119 100.092 132.062 86.2995C126.534 79.4037 119.983 74.2532 112.417 73.3248C104.775 72.3871 96.575 75.8064 87.9099 84.9695L90.0896 87.0308Z" fill="#343434"/>
</svg>
