<svg width="179" height="172" viewBox="0 0 179 172" fill="none" xmlns="http://www.w3.org/2000/svg">
<path d="M88.9998 86.0001L87.9099 84.9695L88.9998 86.0001ZM156.198 150.268C156.898 150.711 157.824 150.502 158.267 149.802L165.487 138.395C165.93 137.695 165.722 136.769 165.022 136.326C164.322 135.883 163.396 136.091 162.952 136.791L156.535 146.93L146.395 140.513C145.695 140.069 144.768 140.278 144.325 140.978C143.882 141.678 144.091 142.604 144.791 143.047L156.198 150.268ZM20.9998 23.0001C19.5363 23.3291 19.5364 23.3298 19.5367 23.331C19.5369 23.3319 19.5373 23.3335 19.5377 23.3354C19.5385 23.3392 19.5398 23.3446 19.5414 23.3516C19.5446 23.3657 19.5493 23.3863 19.5554 23.4134C19.5678 23.4674 19.5861 23.5472 19.6104 23.6515C19.659 23.8602 19.7314 24.1674 19.8274 24.5651C20.0195 25.3605 20.3062 26.5179 20.6861 27.9729C21.4459 30.8824 22.5795 34.9841 24.0762 39.7611C27.0658 49.3027 31.5208 61.5914 37.3662 72.4606C43.1739 83.2599 50.5144 92.9669 59.4126 96.9327C63.9217 98.9423 68.8132 99.4686 74.012 97.9391C79.1772 96.4195 84.5353 92.9043 90.0896 87.0308L87.9099 84.9695C82.5893 90.5959 77.6661 93.737 73.1653 95.0611C68.698 96.3754 64.5388 95.9329 60.6338 94.1925C52.7039 90.6583 45.7631 81.7404 40.0083 71.0397C34.2912 60.4088 29.9025 48.3225 26.939 38.8641C25.4591 34.1411 24.3387 30.0866 23.5888 27.2149C23.2139 25.7792 22.9317 24.6398 22.7436 23.8609C22.6496 23.4715 22.5791 23.1723 22.5323 22.9713C22.5089 22.8708 22.4914 22.7949 22.4799 22.7445C22.4742 22.7193 22.4699 22.7006 22.4671 22.6883C22.4657 22.6822 22.4647 22.6777 22.4641 22.6748C22.4637 22.6734 22.4635 22.6725 22.4634 22.6717C22.4633 22.6713 22.4632 22.6712 20.9998 23.0001ZM90.0896 87.0308C95.4103 81.4043 100.333 78.2633 104.834 76.9391C109.301 75.6249 113.461 76.0673 117.366 77.8077C125.296 81.3419 132.236 90.2599 137.991 100.961C143.708 111.591 148.097 123.678 151.061 133.136C152.54 137.859 153.661 141.914 154.411 144.785C154.786 146.221 155.068 147.36 155.256 148.139C155.35 148.529 155.42 148.828 155.467 149.029C155.491 149.129 155.508 149.205 155.52 149.256C155.525 149.281 155.53 149.3 155.532 149.312C155.534 149.318 155.535 149.323 155.535 149.325C155.536 149.327 155.536 149.328 155.536 149.328C155.536 149.329 155.536 149.329 157 149C158.463 148.671 158.463 148.67 158.463 148.669C158.463 148.668 158.462 148.667 158.462 148.665C158.461 148.661 158.46 148.656 158.458 148.649C158.455 148.635 158.45 148.614 158.444 148.587C158.432 148.533 158.413 148.453 158.389 148.349C158.341 148.14 158.268 147.833 158.172 147.435C157.98 146.64 157.693 145.482 157.313 144.027C156.554 141.118 155.42 137.016 153.923 132.239C150.934 122.698 146.479 110.409 140.633 99.5397C134.826 88.7404 127.485 79.0333 118.587 75.0675C114.078 73.0579 109.186 72.5316 103.988 74.0611C98.8223 75.5807 93.4643 79.0959 87.9099 84.9695L90.0896 87.0308Z" fill="white"/>
</svg>
