<svg width="226" height="180" viewBox="0 0 226 180" fill="none" xmlns="http://www.w3.org/2000/svg">
<path d="M221.469 108.305C221.637 107.494 221.117 106.7 220.306 106.531L207.089 103.782C206.278 103.613 205.483 104.134 205.315 104.945C205.146 105.756 205.667 106.55 206.478 106.719L218.226 109.163L215.782 120.911C215.613 121.723 216.134 122.517 216.945 122.686C217.756 122.854 218.55 122.334 218.719 121.523L221.469 108.305ZM40.6537 2.49004C51.5475 40.8809 62.3164 70.6093 73.8243 92.6371C85.3266 114.654 97.6422 129.124 111.707 136.798C125.827 144.501 141.494 145.238 159.411 140.244C177.282 135.262 197.485 124.554 220.823 109.254L219.178 106.746C195.918 121.994 176.026 132.498 158.605 137.354C141.23 142.198 126.408 141.401 113.143 134.164C99.823 126.897 87.8575 113.02 76.4833 91.248C65.1149 69.4872 54.412 39.9858 43.5397 1.67109L40.6537 2.49004Z" fill="white"/>
</svg>
