<svg xmlns="http://www.w3.org/2000/svg" viewBox="0 143.76 1440 176.24"><path fill="#ffffff" fill-opacity="1" d="M0,160L30,154.7C60,149,120,139,180,154.7C240,171,300,213,360,208C420,203,480,149,540,154.7C600,160,660,224,720,261.3C780,299,840,309,900,272C960,235,1020,149,1080,144C1140,139,1200,213,1260,240C1320,267,1380,245,1410,234.7L1440,224L1440,320L1410,320C1380,320,1320,320,1260,320C1200,320,1140,320,1080,320C1020,320,960,320,900,320C840,320,780,320,720,320C660,320,600,320,540,320C480,320,420,320,360,320C300,320,240,320,180,320C120,320,60,320,30,320L0,320Z"/></svg>