<svg xmlns="http://www.w3.org/2000/svg" viewBox="56.11 70.02 387.78 357.54"><g id="freepik--background-simple--inject-31"><path d="M401,147.44c-26.91-39.19-64.18-39.07-115.67-29.44-59.73,11.17-62.57-12.75-103.55-35.7C165.45,73.17,142.66,64.82,121.8,74c-18.39,8.07-27.84,25.29-33.48,40-7.59,19.7-9.92,40.15-9.63,60.14.59,41.75,18,88.57,64.24,111.25a96,96,0,0,0,52.55,9.24c15.34-1.68,28.76-6.86,42.35-13,10.4-4.7,21.35-9.35,33-10.19,13.6-1,21.47,4.15,28.88,11.63s14.52,14.69,25.41,19.67C407.27,340.24,429.74,189.34,401,147.44Z" style="fill:#A959DD"/><path d="M401,147.44c-26.91-39.19-64.18-39.07-115.67-29.44-59.73,11.17-62.57-12.75-103.55-35.7C165.45,73.17,142.66,64.82,121.8,74c-18.39,8.07-27.84,25.29-33.48,40-7.59,19.7-9.92,40.15-9.63,60.14.59,41.75,18,88.57,64.24,111.25a96,96,0,0,0,52.55,9.24c15.34-1.68,28.76-6.86,42.35-13,10.4-4.7,21.35-9.35,33-10.19,13.6-1,21.47,4.15,28.88,11.63s14.52,14.69,25.41,19.67C407.27,340.24,429.74,189.34,401,147.44Z" style="fill:#fff;opacity:0.9"/></g><g id="freepik--Shadow--inject-31"><ellipse id="freepik--path--inject-31" cx="250" cy="416.24" rx="193.89" ry="11.32" style="fill:#f5f5f5"/></g><g id="freepik--character-1--inject-31"><polygon points="185.28 408.83 193.25 408.83 193.16 390.37 185.19 390.37 185.28 408.83" style="fill:#ff8b7b"/><polygon points="114.32 403.36 121.95 405.66 130.29 388.89 122.65 386.59 114.32 403.36" style="fill:#ff8b7b"/><path d="M122.72,404.93l-8.58-2.59a.64.64,0,0,0-.78.33l-3.24,6.43a1.24,1.24,0,0,0,.77,1.71c3,.85,4.51,1.12,8.28,2.26,2.32.7,7.14,2.42,10.35,3.39s4.43-2.12,3.19-2.81c-5.56-3.08-7.42-5.58-8.87-7.87A2.1,2.1,0,0,0,122.72,404.93Z" style="fill:#263238"/><path d="M193.15,407.91h-8.71a.65.65,0,0,0-.65.54l-1.23,7.09a1.22,1.22,0,0,0,1.21,1.42c3.14-.06,7.67-.24,11.62-.24,4.61,0,4.51.25,9.92.25,3.28,0,4-3.31,2.64-3.61-6.3-1.36-7.3-1.51-12.85-4.83A3.84,3.84,0,0,0,193.15,407.91Z" style="fill:#263238"/><path d="M188.7,161.53l9.87-5.61s18,25.56,21.44,27.81c4.71,3.06,10.52,10.62,18.37,16.23-.13,1.35-1.51,4.64-2.49,5.36-9.62-3.71-22.1-10.71-25.27-14.8C203.39,181.21,188.7,161.53,188.7,161.53Z" style="fill:#ff8b7b"/><path d="M184.34,157.45c-1.41,7.43,10.9,19.56,10.9,19.56l14.22-10.65A103.51,103.51,0,0,0,197.17,149C190.15,141.41,185.9,149.31,184.34,157.45Z" style="fill:#A959DD"/><path d="M184.34,157.45c-1.41,7.43,10.9,19.56,10.9,19.56l14.22-10.65A103.51,103.51,0,0,0,197.17,149C190.15,141.41,185.9,149.31,184.34,157.45Z" style="opacity:0.5"/><path d="M235.35,198.46l9,2-4.57,9.18s-2.18-.79-5.57-5.55Z" style="fill:#ff8b7b"/><path d="M249.56,209l-1.33,1.78a3.21,3.21,0,0,1-3.92,1l-4.57-2.1,4.57-9.18,4.78,4.15A3.21,3.21,0,0,1,249.56,209Z" style="fill:#ff8b7b"/><polygon points="193.16 390.37 193.21 399.89 185.23 399.89 185.18 390.37 193.16 390.37" style="opacity:0.2"/><polygon points="122.65 386.59 130.29 388.9 125.98 397.54 118.35 395.23 122.65 386.59" style="opacity:0.2"/><path d="M192.88,146.11s10.64,20.32,3.84,65.17H154.07c-.61-6.55,1.91-34.73-5.88-65.58a110.26,110.26,0,0,1,14.19-1.8,156.55,156.55,0,0,1,18.13,0A83,83,0,0,1,192.88,146.11Z" style="fill:#A959DD"/><path d="M192.88,146.11s10.64,20.32,3.84,65.17H154.07c-.61-6.55,1.91-34.73-5.88-65.58a110.26,110.26,0,0,1,14.19-1.8,156.55,156.55,0,0,1,18.13,0A83,83,0,0,1,192.88,146.11Z" style="opacity:0.4"/><path d="M157.82,153.32c1,5.08-.07,17.22-4.24,31.26a205.65,205.65,0,0,0-4.65-35.81v-.06C151.72,148.42,156.91,148.56,157.82,153.32Z" style="opacity:0.2"/><path d="M163.94,127c1.42,5.83,2.34,13.06-1.56,17,0,0,5.67,6.68,13.61,7,7.11.28,4.52-7,4.52-7-6.58-1.55-6.62-9.6-5.71-14.13Z" style="fill:#ff8b7b"/><path d="M174.81,129.78c-.55,2.65-.76,6.51.5,9.57a10.68,10.68,0,0,1-2.95-.89c-3.75-1.73-5.69-4.45-7.76-8.49-.19-1-.41-2-.66-3Z" style="opacity:0.2"/><path d="M162.3,116.41c.3,8,.08,12.74,3.92,17.09,5.77,6.55,15.46,3.47,17.5-4.4,1.83-7.09,1-19-6.51-22.69S162,108.38,162.3,116.41Z" style="fill:#ff8b7b"/><path d="M162.82,125.56c2.67,0,5.5-5.21,4.17-7.72a3.64,3.64,0,0,0,.34-5.4c3.38,1.56,6.71,1.17,7.79-.55,3.48,1.17,8,1.83,8.81-1.33,4.95.77,5.08-5.54,2.86-8.39-2.65-3.42-10-2.42-13.2-.75s-8.1-3.48-11.63-.67c-3.17,2.52-2.14,5.08-2.14,5.08-5.36-.5-8.55,4.56-4.61,7.84C160.74,118.26,160.54,123.18,162.82,125.56Z" style="fill:#263238"/><path d="M160.15,107.11a1,1,0,0,1-.61-.21,6.5,6.5,0,0,1-2.14-6,1,1,0,0,1,2,.31,4.48,4.48,0,0,0,1.4,4.14,1,1,0,0,1,.17,1.41A1,1,0,0,1,160.15,107.11Z" style="fill:#263238"/><path d="M176.48,128.85a5.65,5.65,0,0,1-3.63-2.41.19.19,0,0,1,.07-.26.18.18,0,0,1,.25.07,5.37,5.37,0,0,0,4.07,2.33.19.19,0,0,1,.18.2.18.18,0,0,1-.2.18A5.73,5.73,0,0,1,176.48,128.85Z" style="fill:#263238"/><path d="M159,126.06a7.48,7.48,0,0,0,4.56,3.17c2.44.53,3.41-1.74,2.51-4-.8-2-3-4.76-5.4-4.27S157.75,124.07,159,126.06Z" style="fill:#ff8b7b"/><path d="M168.69,211.28s1.08,17.1,2.47,30.69c1.59,15.4,3.57,35.39,4.82,50.63,0,.08,0,.14,0,.21.24,2.89.45,5.6.63,8.08,1.79,24.85,6,97.16,6,97.16h13.5s5.09-73.79,4.79-99.08c-.29-24.32-4.16-87.69-4.16-87.69Z" style="fill:#263238"/><path d="M181.47,392.76c-.06,0,.23,5.56.23,5.56h15.57l.4-6.11Z" style="fill:#A959DD"/><path d="M171.16,242c1.59,15.4,3.57,35.39,4.82,50.63,0,.08,0,.14,0,.21,3-14.44,3.89-32.41,2.74-62Z" style="opacity:0.2"/><path d="M181.59,211.28s-5.77,63.09-11.25,85.59c-6,24.63-40.35,100-40.35,100l-14-4.23s26.75-70.6,30.42-95.16c4-26.65,7.64-86.16,7.64-86.16Z" style="fill:#263238"/><path d="M117.25,387.8c-.06,0-2,4.86-2,4.86l15.36,4.64,2.81-5.24Z" style="fill:#A959DD"/><path d="M174.62,119.38c0,.65.31,1.2.72,1.23s.77-.49.78-1.14-.31-1.2-.72-1.22S174.63,118.73,174.62,119.38Z" style="fill:#263238"/><ellipse cx="182.92" cy="119.87" rx="0.75" ry="1.18" transform="translate(-0.5 0.77) rotate(-0.24)" style="fill:#263238"/><path d="M179.59,120a24.63,24.63,0,0,0,2.9,5.76,3.54,3.54,0,0,1-3,.39Z" style="fill:#ff5652"/><path d="M172.53,117.84a.36.36,0,0,0,.29-.16,2.84,2.84,0,0,1,2.32-1.31.35.35,0,0,0,.38-.36.4.4,0,0,0-.37-.4,3.51,3.51,0,0,0-3,1.62.39.39,0,0,0,.1.53A.34.34,0,0,0,172.53,117.84Z" style="fill:#263238"/><path d="M185,117.81a.42.42,0,0,0,.16,0,.4.4,0,0,0,.16-.52,3.91,3.91,0,0,0-2.76-2.15.36.36,0,0,0-.4.34.38.38,0,0,0,.33.42h0a3.12,3.12,0,0,1,2.17,1.73A.39.39,0,0,0,185,117.81Z" style="fill:#263238"/><path d="M143.46,156.59l10.08,6.09s-8.63,20.17-11.65,27.44c-.4,7.55-.35,21.69,1,28.23-.71,1.11-3.39,3.32-4.6,3.48-5.43-12.25-8.41-26.65-7.89-31.64C131.59,178.83,143.46,156.59,143.46,156.59Z" style="fill:#ff8b7b"/><path d="M148.19,145.7c-7.49,1.1-13.29,22-13.29,22L151.74,179s4.22-9.54,7.22-18.77C162.11,150.55,156.23,144.53,148.19,145.7Z" style="fill:#A959DD"/><path d="M148.19,145.7c-7.49,1.1-13.29,22-13.29,22L151.74,179s4.22-9.54,7.22-18.77C162.11,150.55,156.23,144.53,148.19,145.7Z" style="opacity:0.4"/><path d="M124.9,407.05a2.37,2.37,0,0,0,1.57.05,1.1,1.1,0,0,0,.62-.86.66.66,0,0,0-.18-.61c-.73-.69-3.58.09-3.91.18a.19.19,0,0,0,0,.35A9.93,9.93,0,0,0,124.9,407.05Zm1.54-1.26a.57.57,0,0,1,.22.11.25.25,0,0,1,.06.25.78.78,0,0,1-.41.6c-.51.23-1.52,0-2.75-.68A7.15,7.15,0,0,1,126.44,405.79Z" style="fill:#A959DD"/><path d="M123,406.18h.1c.9-.2,2.85-1.43,2.9-2.35a.64.64,0,0,0-.45-.65,1,1,0,0,0-.83,0c-1.07.47-1.82,2.65-1.85,2.74a.21.21,0,0,0,0,.19Zm2.33-2.67.08,0c.23.1.22.22.22.26,0,.54-1.33,1.53-2.26,1.9.25-.63.82-1.86,1.51-2.16A.64.64,0,0,1,125.34,403.51Z" style="fill:#A959DD"/><path d="M196.54,409.3a2.9,2.9,0,0,0,1.91-.49,1,1,0,0,0,.31-.92.62.62,0,0,0-.34-.5c-1-.54-4.12,1.08-4.47,1.27a.18.18,0,0,0-.09.2.2.2,0,0,0,.16.16A14.15,14.15,0,0,0,196.54,409.3Zm1.36-1.65a.74.74,0,0,1,.36.07.23.23,0,0,1,.12.2.65.65,0,0,1-.19.61c-.47.43-1.78.51-3.56.22A10,10,0,0,1,197.9,407.65Z" style="fill:#A959DD"/><path d="M194.05,409l.08,0c.94-.43,2.77-2.15,2.58-3.06-.05-.21-.21-.47-.73-.52a1.3,1.3,0,0,0-1,.32c-1,.83-1.09,3-1.1,3.07a.2.2,0,0,0,.09.17A.15.15,0,0,0,194.05,409Zm1.79-3.23H196c.34,0,.37.17.38.21.11.55-1.12,1.9-2.08,2.49a4.29,4.29,0,0,1,.94-2.46A1,1,0,0,1,195.84,405.79Z" style="fill:#A959DD"/><path d="M142.17,216.07l4.34,7.49-8,2.05s-3.57-5.91-1.72-8.87Z" style="fill:#ff8b7b"/><polygon points="147.28 229.29 140.57 231.74 138.53 225.61 146.51 223.56 147.28 229.29" style="fill:#ff8b7b"/></g><g id="freepik--character-2--inject-31"><path d="M326.51,140.56c-.87,5.29-1.61,14.94,2.16,18.33a20.33,20.33,0,0,1-12.46,8.9c-8.28-4.2-3.86-8.41-3.86-8.41,5.82-1.57,5.54-5.91,4.4-10Z" style="fill:#ffb573"/><path d="M331.43,159.62c-1.3-2.57,2.56-4.62.33-4.93s-9.81-3-16.81-2.11S302.57,155,307.59,163,334.3,165.28,331.43,159.62Z" style="fill:#A959DD"/><path d="M344.5,167.6c1.61,1.79,3,3.54,4.48,5.36s2.84,3.67,4.19,5.57a73,73,0,0,1,7.29,12.37,26.71,26.71,0,0,1,1.35,3.76,13.52,13.52,0,0,1,.52,4.81,16.84,16.84,0,0,1-1.07,4.2,30.5,30.5,0,0,1-1.58,3.46,55.1,55.1,0,0,1-8.39,11.45L347.66,216A116.86,116.86,0,0,0,353,204.12a29.39,29.39,0,0,0,.87-2.84,11.45,11.45,0,0,0,.34-2.4,7,7,0,0,0-.41-1.85,22.93,22.93,0,0,0-1.09-2.55,77.64,77.64,0,0,0-6.85-10.64c-2.59-3.48-5.38-7-8.14-10.27Z" style="fill:#ffb573"/><path d="M339.78,159.8c6.58.71,13.77,13.09,13.77,13.09l-10.89,12.78s-8.6-7.12-10.36-11.69C330,168.06,335.51,159.33,339.78,159.8Z" style="fill:#263238"/><path d="M349.17,215.08,340,217.9l7.58,4.86s5-2.7,5-6.38Z" style="fill:#ffb573"/><polygon points="335.78 224.01 342.35 227.74 347.61 222.76 340.03 217.9 335.78 224.01" style="fill:#ffb573"/><path d="M296.62,166.27c-.2,5.59.77,18.66,6.66,49.11l35.94-1.07c-1-13.93-1.29-22.78,4-49.77a4,4,0,0,0-3.41-4.74,100.81,100.81,0,0,0-11.11-.91,115.14,115.14,0,0,0-16.32.49c-4.16.5-8.64,1.37-11.59,2A5.19,5.19,0,0,0,296.62,166.27Z" style="fill:#263238"/><path d="M303.46,171.39a130.33,130.33,0,0,1-9,15.41,86.18,86.18,0,0,1-5.47,7.26,41.1,41.1,0,0,1-6.95,6.69c-.36.25-.71.5-1.1.74s-.75.48-1.24.73a18.31,18.31,0,0,1-2.59,1.07,38.68,38.68,0,0,1-4.67,1.15,87.6,87.6,0,0,1-8.93,1.14,156.77,156.77,0,0,1-17.6.37l-.21-4.48c2.81-.42,5.67-.84,8.49-1.29s5.63-.91,8.41-1.44,5.52-1.11,8.14-1.8a31.43,31.43,0,0,0,3.66-1.2,8.93,8.93,0,0,0,1.38-.67,6.56,6.56,0,0,0,.6-.41,7.33,7.33,0,0,0,.66-.51,36.71,36.71,0,0,0,5.22-5.59c1.64-2.14,3.23-4.39,4.74-6.73s2.94-4.74,4.36-7.17,2.78-4.93,4.06-7.33Z" style="fill:#ffb573"/><path d="M300.12,161.54c-8.41,3-11.41,14.9-11.41,14.9l12.44,12.88S308,179.26,309,170.58C309.55,165.51,305.3,159.69,300.12,161.54Z" style="fill:#263238"/><path d="M248,201.41h-9.59l5.12,7.11s4.95-.87,5.91-4.33Z" style="fill:#ffb573"/><path d="M234.15,205.57l2.77,3.65a1.12,1.12,0,0,0,1.13.42l5.48-1.11-5.12-7.11-4,2.49A1.14,1.14,0,0,0,234.15,205.57Z" style="fill:#ffb573"/><path d="M306.6,131c-.06.71-.49,1.26-1,1.22s-.8-.65-.74-1.36.49-1.26.95-1.22S306.66,130.26,306.6,131Z" style="fill:#263238"/><path d="M306.06,129.67l-1.67-.63S305.16,130.44,306.06,129.67Z" style="fill:#263238"/><path d="M305.86,132.5a19.11,19.11,0,0,1-2.91,4.34,3.08,3.08,0,0,0,2.5.68Z" style="fill:#ed893e"/><path d="M309.36,129.32a.43.43,0,0,1-.42-.26c-.73-1.8-3.16-2.38-3.18-2.39a.42.42,0,1,1,.19-.81c.12,0,2.88.69,3.77,2.88a.42.42,0,0,1-.23.55A.31.31,0,0,1,309.36,129.32Z" style="fill:#263238"/><path d="M330.9,130.34c-1.26,8.7-1.6,12.41-6.39,16.53-7.19,6.21-17.6,2.76-19-6.13-1.23-8,1-20.89,9.87-23.67A12,12,0,0,1,330.9,130.34Z" style="fill:#ffb573"/><path d="M310.67,125.84c-2.11,1.49-2.77,8.73-2.11,13.58.9,6.54-5.19,6.54-8.2,4.41-1,10.17,14.91,11,23.86,11.25S344.13,154,341.16,142s.57-22.28-8.65-24c-.84-5.56-22.05-8.72-26,3C307.34,125.33,310.67,125.84,310.67,125.84Z" style="fill:#263238"/><path d="M311.73,135.24a6.15,6.15,0,0,1-3.69,3.47c-1.6.52-1.54-2.1-1.12-4.6.38-2.25,1.68-5.23,3.29-4.62S312.45,133.05,311.73,135.24Z" style="fill:#ffb573"/><path d="M376.27,406.52a3.35,3.35,0,0,0,2.08-.76,1.16,1.16,0,0,0,.27-1.05.67.67,0,0,0-.41-.52c-1.14-.48-4.47,1.67-4.84,1.91a.21.21,0,0,0-.09.23.2.2,0,0,0,.18.16A15.28,15.28,0,0,0,376.27,406.52Zm1.38-2a.72.72,0,0,1,.4,0,.24.24,0,0,1,.16.21.76.76,0,0,1-.17.69c-.49.53-1.93.77-3.91.64A11.37,11.37,0,0,1,377.65,404.54Z" style="fill:#A959DD"/><path d="M373.5,406.49a.16.16,0,0,0,.09,0c1-.58,2.88-2.69,2.62-3.67-.06-.23-.26-.51-.84-.51a1.5,1.5,0,0,0-1.12.48c-1,1-1,3.42-1,3.52a.23.23,0,0,0,.11.18A.27.27,0,0,0,373.5,406.49Zm1.74-3.79h.13c.38,0,.42.15.43.2.16.59-1.1,2.22-2.1,3a4.81,4.81,0,0,1,.85-2.83A1.07,1.07,0,0,1,375.24,402.7Z" style="fill:#A959DD"/><polygon points="374.11 407.93 365.26 407.93 360.69 387.43 369.55 387.43 374.11 407.93" style="fill:#ffb573"/><path d="M374.08,405.94l-9.85-1.37a.55.55,0,0,0-.66.52l-.65,7.85a1.82,1.82,0,0,0,1.51,1.8c3.43.42,5.07.44,9.4,1.05A82,82,0,0,0,384.66,417c3.64,0,3.18-3.67,1.57-4C379,411.47,378,409,375.58,406.7A2.8,2.8,0,0,0,374.08,405.94Z" style="fill:#263238"/><g style="opacity:0.2"><polygon points="360.69 387.43 363.05 398 371.9 398 369.55 387.43 360.69 387.43"/></g><path d="M339.22,214.31c9.71,13.71,15.33,64.05,18.82,91,3.63,28,14.28,90.67,14.28,90.67h-12s-16.52-63.49-22.8-90.82c-6.92-30.16-21.34-90.82-21.34-90.82Z" style="fill:#A959DD"/><path d="M329.21,237.61c5.85,17.68,6.1,40,5.43,55-3.6-15.53-8.08-34.54-11.72-49.94Z" style="opacity:0.2"/><path d="M316.39,407.52a3.4,3.4,0,0,1-2.15-.54,1.19,1.19,0,0,1-.37-1,.65.65,0,0,1,.35-.55c1.09-.6,4.62,1.21,5,1.41a.22.22,0,0,1,.12.22.2.2,0,0,1-.17.17A15,15,0,0,1,316.39,407.52Zm-1.58-1.83a.75.75,0,0,0-.39.08.25.25,0,0,0-.14.22.75.75,0,0,0,.25.67c.53.49,2,.57,4,.25A11.21,11.21,0,0,0,314.81,405.69Z" style="fill:#A959DD"/><path d="M319.14,407.21l-.09,0c-1.05-.48-3.14-2.39-3-3.39,0-.24.21-.53.79-.59a1.54,1.54,0,0,1,1.16.36c1.11.93,1.32,3.31,1.33,3.41a.22.22,0,0,1-.09.19A.19.19,0,0,1,319.14,407.21ZM317,403.62h-.13c-.38,0-.41.19-.41.24-.1.6,1.32,2.1,2.39,2.75a4.86,4.86,0,0,0-1.13-2.73A1.11,1.11,0,0,0,317,403.62Z" style="fill:#A959DD"/><polygon points="327.76 407.93 318.9 407.93 317.72 387.43 326.58 387.43 327.76 407.93" style="fill:#ffb573"/><path d="M318.24,406.91h9.95a.7.7,0,0,1,.71.6l1.13,7.87a1.43,1.43,0,0,1-1.42,1.58c-3.47-.06-5.14-.27-9.51-.27-2.7,0-8.85.28-12.57.28s-3.91-3.67-2.36-4c6.94-1.49,10.25-3.55,12.59-5.51A2.33,2.33,0,0,1,318.24,406.91Z" style="fill:#263238"/><g style="opacity:0.2"><polygon points="317.73 387.43 318.33 398 327.19 398 326.58 387.43 317.73 387.43"/></g><path d="M303.28,215.38s3.67,66.64,6.2,93.53c2.64,28,7,87,7,87h12s2.62-60.14.67-87.67c-2.12-30,5.74-71.66.51-93.68C324.73,214.6,303.28,215.38,303.28,215.38Z" style="fill:#A959DD"/><polygon points="329.46 396.38 315.41 396.38 314.71 390.86 330.03 391.95 329.46 396.38" style="fill:#263238"/><polygon points="373.15 396.38 359.11 396.38 357.7 390.51 373.34 391.96 373.15 396.38" style="fill:#263238"/><path d="M339.7,212.19l1,3.19c.14.24-.15.51-.57.52l-37,1.1c-.33,0-.6-.14-.63-.35l-.42-3.2c0-.23.25-.42.61-.43l36.39-1.09A.69.69,0,0,1,339.7,212.19Z" style="fill:#fff"/><path d="M334.93,216.4l1,0c.19,0,.33-.11.32-.23l-.58-4.17c0-.12-.19-.21-.39-.21l-1,0c-.2,0-.34.11-.33.23l.59,4.17C334.56,216.31,334.74,216.41,334.93,216.4Z" style="fill:#A959DD"/><path d="M305.9,217.27l1,0c.2,0,.34-.11.33-.24l-.59-4.16c0-.12-.19-.22-.38-.21l-1,0c-.19,0-.33.11-.32.23l.58,4.16C305.53,217.18,305.7,217.27,305.9,217.27Z" style="fill:#A959DD"/><path d="M320.41,216.83l1,0c.19,0,.34-.12.32-.24l-.58-4.16c0-.13-.19-.22-.38-.21l-1,0c-.19,0-.34.11-.32.24l.58,4.16C320.05,216.74,320.22,216.84,320.41,216.83Z" style="fill:#A959DD"/></g></svg>