<svg width="64" height="64" viewBox="0 0 64 64" fill="none" xmlns="http://www.w3.org/2000/svg">
<path d="M62 32C62 48.6 48.6 62 32 62C15.4 62 2 48.6 2 32C2 15.4 15.4 2 32 2C48.6 2 62 15.4 62 32Z" fill="#FFDD67"/>
<path d="M61.8002 13.2C61.3002 10.5 59.8002 8.30003 57.3002 7.60003C54.6002 6.90003 52.2002 7.90003 49.9002 10.3C48.6002 6.70003 46.6002 4.00003 43.4002 2.60003C40.2002 1.20003 37.0002 2.20003 35.0002 4.70003C32.9002 7.30003 32.1002 11.4 34.3002 16.7C36.4002 21.7 45.7002 31.7 46.0002 32C46.4002 31.8 56.8002 25.3 59.3002 22.1C61.8002 19 62.3002 15.9 61.8002 13.2Z" fill="#F46767"/>
<path d="M29 4.70003C27 2.20003 23.8 1.20003 20.6 2.60003C17.4 4.00003 15.4 6.70003 14.1 10.3C11.7 8.00003 9.30003 6.90003 6.60003 7.70003C4.20003 8.40003 2.60003 10.6 2.10003 13.3C1.60003 15.9 2.20003 19.1 4.60003 22.2C7.20003 25.3 17.6 31.8 18 32C18.3 31.7 27.6 21.7 29.7 16.7C31.9 11.4 31.1 7.40003 29 4.70003Z" fill="#F46767"/>
<path d="M49 38.0999C49 37.2999 48.5 36.3 47.2 36C43.7 35.3 38.6 34.7 32 34.7C25.4 34.7 20.3 35.4 16.8 36C15.4 36.3 15 37.2999 15 38.0999C15 45.3999 20.6 52.7 32 52.7C43.4 52.6 49 45.2999 49 38.0999Z" fill="#664E27"/>
<path d="M44.7 38.3C42.5 37.9 37.9 37.3 32 37.3C26.1 37.3 21.5 37.9 19.3 38.3C18 38.5 17.9 39 18 39.8C18.1 40.2 18.1 40.8001 18.3 41.4001C18.4 42.0001 18.6 42.3001 19.6 42.2001C21.5 42.0001 42.6 42.0001 44.5 42.2001C45.5 42.3001 45.6 42.0001 45.8 41.4001C45.9 40.8001 46 40.3 46.1 39.8C46.1 39 46 38.5 44.7 38.3Z" fill="white"/>
</svg>
